<?xml version="1.0" encoding="UTF-8"?>
<svg version="1.1" xmlns="http://www.w3.org/2000/svg" width="234" height="300">
<path d="M0 0 C1.65 0 3.3 0 5 0 C6.31746333 2.58090767 7.62909617 5.16450458 8.9375 7.75 C9.31068359 8.47960938 9.68386719 9.20921875 10.06835938 9.9609375 C10.42607422 10.66992188 10.78378906 11.37890625 11.15234375 12.109375 C11.48226318 12.75874023 11.81218262 13.40810547 12.15209961 14.07714844 C13 16 13 16 13.43774414 17.85253906 C14.21906847 20.83670267 15.52591205 23.46195415 16.84375 26.25 C17.12892487 26.85671539 17.41409973 27.46343079 17.70791626 28.08853149 C18.63536367 30.0605693 19.56754288 32.03032668 20.5 34 C21.78087923 36.71509797 23.0591883 39.43139513 24.3359375 42.1484375 C24.65215057 42.82095551 24.96836365 43.49347351 25.29415894 44.18637085 C27.17511983 48.19978415 29.00716297 52.23036507 30.7890625 56.2890625 C31.19060547 57.20300781 31.59214844 58.11695313 32.00585938 59.05859375 C32.73116349 60.72185658 33.44909227 62.3883629 34.15820312 64.05859375 C35.96846517 68.2015181 37.68954108 70.84616494 41 74 C41.65234375 75.97265625 41.65234375 75.97265625 41.9375 78.0625 C42.82080175 83.00244683 44.79633963 87.07285454 47.07421875 91.51953125 C48 94 48 94 47.8828125 96.16015625 C46.72922973 98.56430442 45.48585114 99.30312828 43.1875 100.625 C42.50042969 101.02976562 41.81335938 101.43453125 41.10546875 101.8515625 C35.61277839 104.84757542 35.61277839 104.84757542 33.10571289 105.47119141 C28.95863714 106.51264834 24.9961259 108.26404695 21.01953125 109.828125 C17.0173785 111.36567521 13.2847429 112.46272816 9 113 C5.24429046 105.125529 1.81437301 97.26101253 -1 89 C-1.66 89 -2.32 89 -3 89 C-3.061875 88.071875 -3.12375 87.14375 -3.1875 86.1875 C-3.93014807 80.71890969 -6.59626764 75.9050332 -9 71 C-9.64995297 72.41478135 -10.29478722 73.83191487 -10.9375 75.25 C-11.47697266 76.43335937 -11.47697266 76.43335937 -12.02734375 77.640625 C-13.02749595 79.89174322 -13.02749595 79.89174322 -13.45898438 81.92895508 C-14.51491513 85.97113044 -16.68823164 89.69751777 -18.56054688 93.42382812 C-20.33990315 97.09674366 -21.43472484 99.89777836 -21 104 C-21.66 104 -22.32 104 -23 104 C-25.45417612 109.673142 -27.46246904 114.81839396 -28 121 C-28.66 121 -29.32 121 -30 121 C-30.41636719 121.59941406 -30.83273438 122.19882813 -31.26171875 122.81640625 C-33.46316359 125.58181673 -35.60716008 126.48199344 -38.8125 127.9375 C-49.33785056 133.04223185 -54.63256697 140.44885046 -61 150 C-61.66 150 -62.32 150 -63 150 C-60.9677576 143.33876102 -58.31971746 137.19553114 -55.3046875 130.91796875 C-53.9834801 128.19090306 -53.9834801 128.19090306 -53.48046875 125.921875 C-52.63250925 122.53003701 -50.72451344 119.5885558 -49.05859375 116.53515625 C-47.8129024 114.08061262 -47.8129024 114.08061262 -48.16015625 111.55859375 C-47.95844644 108.3361565 -46.59038588 107.268236 -44.4921875 104.94628906 C-41.15079196 100.58804214 -39.18609943 95.37747687 -37 90.375 C-36.20916016 88.70630859 -36.20916016 88.70630859 -35.40234375 87.00390625 C-32.23231035 79.74241642 -31.57900841 75.08274609 -33.9543457 67.47216797 C-35.20523639 64.51477382 -36.68602895 62.23417894 -39 60 C-38.34 61.11375 -37.68 62.2275 -37 63.375 C-35 66.75 -35 66.75 -35 69 C-38.71693054 69.35399338 -40.75121713 69.12439143 -44.125 67.4375 C-51.45976249 61.21889702 -53.8552529 51.07726297 -56 42 C-45.52619744 43.62440919 -39.53209095 47.95104408 -32.56640625 55.81640625 C-30.96808059 58.04449613 -30.50827005 59.35008721 -30 62 C-29.34490497 64.00382009 -28.68025637 66.00458132 -28 68 C-26.84475582 65.62918558 -25.70074792 63.25396043 -24.5625 60.875 C-24.23701172 60.20984375 -23.91152344 59.5446875 -23.57617188 58.859375 C-22.08227479 55.71757083 -21.02603013 53.16074082 -20.46484375 49.6953125 C-19.92540235 46.56745902 -19.24484625 46.09984422 -17 44 C-15.89268815 41.88729306 -14.85702345 39.73627553 -13.875 37.5625 C-13.35679688 36.42941406 -12.83859375 35.29632813 -12.3046875 34.12890625 C-11.00056494 31.23779625 -11.00056494 31.23779625 -10.53125 29.02734375 C-9.69144121 25.82248521 -8.08641942 22.9585382 -6.625 20 C-3.48548252 13.49802653 -1.39015155 7.10963221 0 0 Z M39 75 C40 77 40 77 40 77 Z M40 77 C41 79 41 79 41 79 Z M-47 110 C-46 112 -46 112 -46 112 Z M-29 116 C-28 118 -28 118 -28 118 Z " fill="#79CD8E" transform="translate(112,0)"/>
<path d="M0 0 C1.98 0.495 1.98 0.495 4 1 C2.08640901 8.80361075 -0.45598079 16.08537617 -3.6875 23.4375 C-4.12956787 24.44449951 -4.57163574 25.45149902 -5.02709961 26.48901367 C-10.29122403 38.2107674 -16.96642844 47.80654222 -26 57 C-26.63550781 57.64839844 -27.27101563 58.29679687 -27.92578125 58.96484375 C-33.24892426 64.00144076 -39.36907636 66.98292974 -46 70 C-46 70.66 -46 71.32 -46 72 C-46.639375 72.12375 -47.27875 72.2475 -47.9375 72.375 C-50.30258774 72.85767097 -52.65102692 73.37355364 -55.00390625 73.91015625 C-60.31280605 75.09218029 -65.64918484 76.09063233 -71 77.0625 C-71.93328125 77.23587891 -72.8665625 77.40925781 -73.828125 77.58789062 C-76.54853067 78.08371875 -79.27125701 78.55245016 -82 79 C-82.68441162 79.11255127 -83.36882324 79.22510254 -84.07397461 79.34106445 C-92.16945191 80.44993993 -100.40932756 80.10725589 -108.5625 80.0625 C-110.15950381 80.05747543 -111.75650914 80.05291421 -113.35351562 80.04882812 C-117.23571533 80.03789728 -121.11784051 80.02068533 -125 80 C-125 79.01 -125 78.02 -125 77 C-115.52339379 72.07103492 -105.90497835 67.54716445 -96.125 63.25 C-95.08029541 62.79069092 -94.03559082 62.33138184 -92.95922852 61.8581543 C-86.68459637 59.11994287 -80.37382306 56.4986376 -74 54 C-74 53.34 -74 52.68 -74 52 C-73.01 51.34 -72.02 50.68 -71 50 C-73.04224637 50.11514149 -75.08380159 50.24257326 -77.125 50.375 C-78.83042969 50.47941406 -78.83042969 50.47941406 -80.5703125 50.5859375 C-83.97138685 50.99654557 -86.7897477 51.8350608 -90 53 C-91.98037771 53.54241963 -93.91291903 53.98542798 -95.9375 54.32421875 C-109.38941626 56.69359036 -120.34552219 64.55918691 -128.4375 75.375 C-128.86933594 76.00148438 -129.30117187 76.62796875 -129.74609375 77.2734375 C-131.0265619 79.03657433 -132.42284042 80.50100868 -134 82 C-133.45759588 77.01904952 -131.81471253 73.09666319 -129.4375 68.75 C-129.07962402 68.09104736 -128.72174805 67.43209473 -128.35302734 66.75317383 C-122.77045107 56.74097123 -115.20090886 48.92652901 -107 41 C-106.34 40.34 -105.68 39.68 -105 39 C-97.06830981 34.68163534 -88.68222155 32.2687849 -80 30 C-80 29.67 -80 29.34 -80 29 C-74.75128522 27.69943351 -69.87993495 26.89501978 -64.4609375 27.09765625 C-57.68170769 27.14876121 -51.45869252 25.96712152 -44.875 24.4375 C-43.7001001 24.16719971 -42.5252002 23.89689941 -41.31469727 23.6184082 C-18.14962633 18.11362317 -18.14962633 18.11362317 -1.24609375 2.2265625 C-0.83488281 1.49179688 -0.42367187 0.75703125 0 0 Z M-69 28 C-69 28.33 -69 28.66 -69 29 C-67.35 29 -65.7 29 -64 29 C-64 28.67 -64 28.34 -64 28 C-65.65 28 -67.3 28 -69 28 Z M-75 29 C-75 29.33 -75 29.66 -75 30 C-73.35 30 -71.7 30 -70 30 C-70 29.67 -70 29.34 -70 29 C-71.65 29 -73.3 29 -75 29 Z " fill="#54B88C" transform="translate(171,96)"/>
<path d="M0 0 C2.4375 0.625 2.4375 0.625 5 2 C5.36504537 3.99445556 5.6929874 5.99579083 6 8 C6.80592836 10.03138571 7.68685219 12.03400219 8.625 14.0078125 C9.16278076 15.15080811 9.70056152 16.29380371 10.25463867 17.47143555 C10.83626623 18.68936657 11.41805646 19.90721993 12 21.125 C13.18643205 23.63277816 14.36840761 26.14265015 15.55078125 28.65234375 C15.84527664 29.27544937 16.13977203 29.89855499 16.44319153 30.5405426 C19.51122643 37.04668418 22.4281071 43.61909994 25.28320312 50.22119141 C26.81000188 54.32121869 26.81000188 54.32121869 30 57 C30.0825 57.70125 30.165 58.4025 30.25 59.125 C31.54840247 64.10220945 34.70539679 67.60515677 39.08203125 70.265625 C44.19702147 72.66635596 49.45427947 74.00360577 55 75 C55 76.32 55 77.64 55 79 C24.97 79 -5.06 79 -36 79 C-36 77.68 -36 76.36 -36 75 C-35.31292969 74.82984375 -34.62585938 74.6596875 -33.91796875 74.484375 C-33.01691406 74.24203125 -32.11585938 73.9996875 -31.1875 73.75 C-30.29417969 73.51796875 -29.40085938 73.2859375 -28.48046875 73.046875 C-25.43486434 71.76148605 -24.46208978 70.97275398 -23 68 C-22.22911223 61.18060821 -24.11413971 55.83772928 -26.5 49.5 C-26.83386719 48.5821875 -27.16773438 47.664375 -27.51171875 46.71875 C-28.32985136 44.47472914 -29.15938628 42.2356748 -30 40 C-29.11803955 39.3797998 -29.11803955 39.3797998 -28.21826172 38.74707031 C-15.75311542 29.83217912 -4.36428953 14.86586121 0 0 Z " fill="#45CBA6" transform="translate(172,126)"/>
<path d="M0 0 C2.30078125 -0.31640625 2.30078125 -0.31640625 5 0 C6.66796875 2.09765625 6.66796875 2.09765625 8.1875 5.0625 C11.38981161 11.00661381 14.96448701 16.54292114 18.79956055 22.09790039 C22 26.7939883 22 26.7939883 22 29 C22.66 29 23.32 29 24 29 C24.26425781 28.2776416 24.52851562 27.5552832 24.80078125 26.81103516 C26.01976578 23.95366792 27.45122953 21.5955613 29.1875 19.0234375 C29.80367187 18.105625 30.41984375 17.1878125 31.0546875 16.2421875 C31.69664063 15.29601562 32.33859375 14.34984375 33 13.375 C33.64195313 12.42109375 34.28390625 11.4671875 34.9453125 10.484375 C36.13462318 8.71782566 37.32582629 6.95254783 38.51953125 5.18896484 C39.68632846 3.46378282 40.84472198 1.73291704 42 0 C44.625 -0.1875 44.625 -0.1875 47 0 C48.00285674 6.86763391 48.99907426 13.73620753 49.99072266 20.60546875 C50.32871844 22.94130153 50.66822304 25.27691652 51.00927734 27.61230469 C51.49975833 30.97274295 51.98477493 34.33393186 52.46875 37.6953125 C52.62186646 38.73615997 52.77498291 39.77700745 52.93273926 40.84939575 C53.61236709 45.60459286 54.20109028 50.18101499 54 55 C50.7 55 47.4 55 44 55 C41.96928917 48.77542984 41.16411946 42.54857882 40.375 36.0625 C40.2409375 34.99708984 40.106875 33.93167969 39.96875 32.83398438 C39.6409417 30.22322541 39.31816487 27.61194869 39 25 C34.58335464 28.96680185 31.77414693 33.84147427 28.7109375 38.86328125 C27.4375 40.859375 27.4375 40.859375 25 44 C23.68 44 22.36 44 21 44 C19.35253906 42.1640625 19.35253906 42.1640625 17.765625 39.625 C17.19199219 38.72265625 16.61835937 37.8203125 16.02734375 36.890625 C15.44082031 35.93671875 14.85429688 34.9828125 14.25 34 C13.64800781 33.04609375 13.04601562 32.0921875 12.42578125 31.109375 C10.93764154 28.74724848 9.4632379 26.3776035 8 24 C7.87713623 24.8139624 7.75427246 25.6279248 7.62768555 26.46655273 C6.18561822 35.99475468 4.59979339 45.49722728 3 55 C-0.63 55 -4.26 55 -8 55 C-7.74476562 53.13988281 -7.74476562 53.13988281 -7.484375 51.2421875 C-7.23951562 49.45313427 -6.99473066 47.66407085 -6.75 45.875 C-6.61867676 44.91682373 -6.48735352 43.95864746 -6.35205078 42.97143555 C-5.53259991 36.97144465 -4.73084094 30.96936478 -3.9453125 24.96484375 C-3.67691068 22.92147369 -3.40834333 20.87812543 -3.13977051 18.83477783 C-2.96348823 17.48835996 -2.78827372 16.14180186 -2.61413574 14.79510498 C-2.3677801 12.89040544 -2.1175601 10.98620693 -1.8671875 9.08203125 C-1.65231689 7.43037964 -1.65231689 7.43037964 -1.43310547 5.74536133 C-1 3 -1 3 0 0 Z " fill="#7DD292" transform="translate(64,245)"/>
<path d="M0 0 C5 0 5 0 6.59765625 1.29296875 C7.08105469 1.91816406 7.56445312 2.54335937 8.0625 3.1875 C11.16937155 7.00874983 14.39342021 10.64961639 17.75 14.25 C18.78298801 15.36287678 19.81553524 16.47616284 20.84765625 17.58984375 C21.36602051 18.14913574 21.88438477 18.70842773 22.41845703 19.28466797 C24.01544923 21.01675614 25.60121905 22.75846054 27.18359375 24.50390625 C27.68858398 25.05981445 28.19357422 25.61572266 28.71386719 26.18847656 C29.68151959 27.2548821 30.64708539 28.32318548 31.61035156 29.39355469 C32.72007692 30.61433545 33.8572471 31.81007906 35 33 C35.33 33 35.66 33 36 33 C36.33 22.11 36.66 11.22 37 0 C40.3 0 43.6 0 47 0 C47 18.15 47 36.3 47 55 C41 55 41 55 39.375 53.77734375 C38.694375 52.86662109 38.694375 52.86662109 38 51.9375 C34.52566684 47.58682834 30.82089779 43.54433334 27 39.5 C22.63848283 34.85944199 18.3314338 30.19876911 14.234375 25.3203125 C13.01492554 23.86248617 13.01492554 23.86248617 11 23 C11 33.56 11 44.12 11 55 C7.37 55 3.74 55 0 55 C0 36.85 0 18.7 0 0 Z M36 34 C37 36 37 36 37 36 Z " fill="#7DD292" transform="translate(127,245)"/>
<path d="M0 0 C1.32 0 2.64 0 4 0 C19.84957324 32.41706123 19.84957324 32.41706123 25.5 44.9375 C25.86665771 45.74541992 26.23331543 46.55333984 26.61108398 47.38574219 C29 52.7440363 29 52.7440363 29 55 C19.01043841 55.62004175 19.01043841 55.62004175 15.25 53.3125 C14 51 14 51 15 46 C6.42 46 -2.16 46 -11 46 C-10.34 46.33 -9.68 46.66 -9 47 C-10.18236639 50.36519666 -11.11966986 52.82711937 -14 55 C-16.69921875 55.29296875 -16.69921875 55.29296875 -19.6875 55.1875 C-20.68136719 55.16042969 -21.67523437 55.13335937 -22.69921875 55.10546875 C-23.45847656 55.07066406 -24.21773437 55.03585937 -25 55 C-24.3676818 50.55953359 -22.6608035 46.86495776 -20.68359375 42.890625 C-20.18473412 41.87001228 -20.18473412 41.87001228 -19.67579651 40.82878113 C-18.6015033 38.63329196 -17.51948712 36.44170599 -16.4375 34.25 C-15.33782059 32.00654796 -14.24021094 29.76209139 -13.14273071 27.51756287 C-12.42266178 26.04520685 -11.70194307 24.57316843 -10.9805603 23.10145569 C-8.27064484 17.56994526 -5.60880579 12.01749796 -3 6.4375 C-2.68087646 5.75526367 -2.36175293 5.07302734 -2.03295898 4.37011719 C-1.35349201 2.91425669 -0.67636676 1.45730339 0 0 Z M1 19 C0.18563132 20.76997474 -0.6264294 22.54101152 -1.4375 24.3125 C-1.88996094 25.29863281 -2.34242187 26.28476562 -2.80859375 27.30078125 C-4.22848743 30.51765513 -5.14505576 33.58022303 -6 37 C-0.72 37 4.56 37 10 37 C9.34 35.35 8.68 33.7 8 32 C7.690625 31.05125 7.38125 30.1025 7.0625 29.125 C5.88153039 25.65155998 4.47714172 22.35714027 3 19 C2.34 19 1.68 19 1 19 Z " fill="#7DD292" transform="translate(25,245)"/>
<path d="M0 0 C1.98 0 3.96 0 6 0 C6.061875 0.78375 6.12375 1.5675 6.1875 2.375 C6.8958281 5.53523305 7.67291403 7.52975885 9.140625 10.34765625 C12.1459028 16.23879684 14.93596678 22.22075259 17.71166992 28.22290039 C18.56324284 30.06410612 19.41718245 31.90419977 20.27148438 33.74414062 C21.85432295 37.15973964 23.42956734 40.57868162 25 44 C25.42651855 44.92538574 25.85303711 45.85077148 26.29248047 46.80419922 C26.84186279 48.01293701 26.84186279 48.01293701 27.40234375 49.24609375 C27.71550537 49.93243896 28.02866699 50.61878418 28.35131836 51.32592773 C29 53 29 53 29 55 C27.22992286 55.08114106 25.45877902 55.13925505 23.6875 55.1875 C22.70136719 55.22230469 21.71523437 55.25710938 20.69921875 55.29296875 C18 55 18 55 16.14453125 53.86328125 C15 52 15 52 15 46 C2.625 46.495 2.625 46.495 -10 47 C-11.32 49.64 -12.64 52.28 -14 55 C-17.63 55 -21.26 55 -25 55 C-22.5900047 46.92608072 -19.02383725 39.53521652 -15.3125 32 C-14.36698257 30.06467366 -13.42344521 28.12839007 -12.47998047 26.19206238 C-11.85822718 24.91636856 -11.23583725 23.64098482 -10.61279297 22.36592102 C-8.07079701 17.16110742 -5.58072502 11.93347964 -3.125 6.6875 C-2.63447144 5.64045898 -2.63447144 5.64045898 -2.1340332 4.57226562 C-1.42134968 3.04880282 -0.71041418 1.52452236 0 0 Z M2 19 C-0.47460354 22.46444495 -1.3648363 24.74357648 -1 29 C-1.66 29 -2.32 29 -3 29 C-5.2013866 32.80427492 -5.2013866 32.80427492 -6 37 C-0.72 37 4.56 37 10 37 C8.02989474 30.79416842 5.74844552 24.90148454 3 19 C2.67 19 2.34 19 2 19 Z M-2 26 C-1 28 -1 28 -1 28 Z " fill="#7DD292" transform="translate(205,245)"/>
<path d="M0 0 C0.82741699 0.05236816 1.65483398 0.10473633 2.50732422 0.15869141 C3.85117188 0.23603516 3.85117188 0.23603516 5.22216797 0.31494141 C6.15931641 0.37939453 7.09646484 0.44384766 8.06201172 0.51025391 C9.00689453 0.56697266 9.95177734 0.62369141 10.92529297 0.68212891 C13.26327653 0.82382488 15.60022116 0.97525174 17.93701172 1.13525391 C17.85 2.34761719 17.85 2.34761719 17.76123047 3.58447266 C17.38865139 10.25269823 17.38865139 10.25269823 19.87451172 16.26025391 C23.77766649 18.6499405 27.44467041 19.4795091 31.93701172 20.13525391 C31.93701172 21.45525391 31.93701172 22.77525391 31.93701172 24.13525391 C11.47701172 24.13525391 -8.98298828 24.13525391 -30.06298828 24.13525391 C-30.06298828 22.81525391 -30.06298828 21.49525391 -30.06298828 20.13525391 C-29.28955078 19.97669922 -28.51611328 19.81814453 -27.71923828 19.65478516 C-19.27832649 17.76393734 -12.42740064 15.64976088 -7.12548828 8.51025391 C-4.9966235 5.3109254 -4.9966235 5.3109254 -4.06298828 2.13525391 C-2.06298828 0.13525391 -2.06298828 0.13525391 0 0 Z " fill="#5AD2A3" transform="translate(37.06298828125,180.86474609375)"/>
<path d="M0 0 C2.625 -0.1875 2.625 -0.1875 5 0 C6.1875 2.25 6.1875 2.25 7 5 C5.63416979 7.73166042 4.71277822 8.7556189 1.8125 9.75 C0.9153125 9.87375 0.9153125 9.87375 0 10 C-1.125 6.6875 -1.125 6.6875 -2 3 C-1.34 2.01 -0.68 1.02 0 0 Z " fill="#7ED190" transform="translate(62,82)"/>
<path d="M0 0 C0.33 0 0.66 0 1 0 C1 18.15 1 36.3 1 55 C0.67 55 0.34 55 0 55 C0 36.85 0 18.7 0 0 Z " fill="#7CD291" transform="translate(125,245)"/>
<path d="M0 0 C3.29714793 0.32971479 4.6226839 0.6226839 7 3 C5.8125 5.5 5.8125 5.5 4 8 C1.375 8.375 1.375 8.375 -1 8 C-2 7 -2 7 -2.1875 4.5625 C-2 2 -2 2 0 0 Z " fill="#3DD3B2" transform="translate(212,181)"/>
<path d="M0 0 C0.33 0 0.66 0 1 0 C1 17.82 1 35.64 1 54 C0.67 54 0.34 54 0 54 C0 36.18 0 18.36 0 0 Z " fill="#7CD291" transform="translate(175,246)"/>
<path d="M0 0 C10.89 0 21.78 0 33 0 C33 0.33 33 0.66 33 1 C22.11 1 11.22 1 0 1 C0 0.67 0 0.34 0 0 Z " fill="#49A57E" transform="translate(47,177)"/>
<path d="M0 0 C0.66 0.66 1.32 1.32 2 2 C-0.31 5.3 -2.62 8.6 -5 12 C-6 8 -6 8 -4.75 4.875 C-3 2 -3 2 0 0 Z " fill="#489C76" transform="translate(43,166)"/>
<path d="M0 0 C3.3 0 6.6 0 10 0 C10 0.33 10 0.66 10 1 C6.7 1 3.4 1 0 1 C0 0.67 0 0.34 0 0 Z " fill="#5ED2A1" transform="translate(44,180)"/>
<path d="M0 0 C2.97 0 5.94 0 9 0 C9 0.33 9 0.66 9 1 C6.03 1 3.06 1 0 1 C0 0.67 0 0.34 0 0 Z " fill="#7ED191" transform="translate(164,243)"/>
<path d="M0 0 C2.97 0 5.94 0 9 0 C9 0.33 9 0.66 9 1 C6.03 1 3.06 1 0 1 C0 0.67 0 0.34 0 0 Z " fill="#49AE87" transform="translate(80,176)"/>
<path d="M0 0 C0.33 0 0.66 0 1 0 C1 2.64 1 5.28 1 8 C0.67 8 0.34 8 0 8 C0 5.36 0 2.72 0 0 Z " fill="#46D4AD" transform="translate(148,186)"/>
<path d="M0 0 C0.33 0 0.66 0 1 0 C1 2.31 1 4.62 1 7 C0.67 7 0.34 7 0 7 C0 4.69 0 2.38 0 0 Z " fill="#7ED293" transform="translate(55,290)"/>
<path d="M0 0 C1.98 0.99 1.98 0.99 4 2 C3.67 2.66 3.34 3.32 3 4 C2.01 2.68 1.02 1.36 0 0 Z " fill="#7ED294" transform="translate(134,247)"/>
<path d="M0 0 C0.33 0 0.66 0 1 0 C1 1.98 1 3.96 1 6 C0.67 6 0.34 6 0 6 C0 4.02 0 2.04 0 0 Z " fill="#7ED191" transform="translate(119,294)"/>
<path d="M0 0 C0.33 0 0.66 0 1 0 C1 1.98 1 3.96 1 6 C0.67 6 0.34 6 0 6 C0 4.02 0 2.04 0 0 Z " fill="#7ED294" transform="translate(105,293)"/>
<path d="M0 0 C0.33 0 0.66 0 1 0 C1 1.98 1 3.96 1 6 C0.67 6 0.34 6 0 6 C0 4.02 0 2.04 0 0 Z " fill="#7DD292" transform="translate(118,288)"/>
<path d="M0 0 C0.33 0 0.66 0 1 0 C1 1.98 1 3.96 1 6 C0.67 6 0.34 6 0 6 C0 4.02 0 2.04 0 0 Z " fill="#7DD293" transform="translate(117,282)"/>
<path d="M0 0 C0.33 0 0.66 0 1 0 C1 1.98 1 3.96 1 6 C0.67 6 0.34 6 0 6 C0 4.02 0 2.04 0 0 Z " fill="#7DD292" transform="translate(56,284)"/>
<path d="M0 0 C0.33 0 0.66 0 1 0 C1 1.98 1 3.96 1 6 C0.67 6 0.34 6 0 6 C0 4.02 0 2.04 0 0 Z " fill="#7DD292" transform="translate(57,278)"/>
<path d="M0 0 C0.33 0 0.66 0 1 0 C1 1.98 1 3.96 1 6 C0.67 6 0.34 6 0 6 C0 4.02 0 2.04 0 0 Z " fill="#7ED291" transform="translate(116,276)"/>
<path d="M0 0 C1.98 0 3.96 0 6 0 C6 0.33 6 0.66 6 1 C4.02 1 2.04 1 0 1 C0 0.67 0 0.34 0 0 Z " fill="#4AB38C" transform="translate(89,175)"/>
<path d="M0 0 C0.99 0.33 1.98 0.66 3 1 C1.35 1.33 -0.3 1.66 -2 2 C-1.34 1.34 -0.68 0.68 0 0 Z " fill="#50A783" transform="translate(77,156)"/>
<path d="M0 0 C0.33 0 0.66 0 1 0 C1 1.65 1 3.3 1 5 C0.67 5 0.34 5 0 5 C0 3.35 0 1.7 0 0 Z " fill="#7CD192" transform="translate(69,290)"/>
<path d="M0 0 C0.33 0 0.66 0 1 0 C1 1.65 1 3.3 1 5 C0.67 5 0.34 5 0 5 C0 3.35 0 1.7 0 0 Z " fill="#7ED192" transform="translate(58,273)"/>
<path d="M0 0 C0.33 0 0.66 0 1 0 C1 1.65 1 3.3 1 5 C0.67 5 0.34 5 0 5 C0 3.35 0 1.7 0 0 Z " fill="#7CD191" transform="translate(112,246)"/>
<path d="M0 0 C1.65 0 3.3 0 5 0 C5 0.33 5 0.66 5 1 C3.35 1 1.7 1 0 1 C0 0.67 0 0.34 0 0 Z " fill="#7CD392" transform="translate(127,243)"/>
<path d="M0 0 C1.65 0 3.3 0 5 0 C5 0.33 5 0.66 5 1 C3.35 1 1.7 1 0 1 C0 0.67 0 0.34 0 0 Z " fill="#2DAB94" transform="translate(218,198)"/>
<path d="M0 0 C1.65 0 3.3 0 5 0 C5 0.33 5 0.66 5 1 C3.35 1 1.7 1 0 1 C0 0.67 0 0.34 0 0 Z " fill="#5CD2A1" transform="translate(11,198)"/>
<path d="M0 0 C0.33 0 0.66 0 1 0 C1 1.65 1 3.3 1 5 C0.67 5 0.34 5 0 5 C0 3.35 0 1.7 0 0 Z " fill="#3DD3B2" transform="translate(208,183)"/>
<path d="M0 0 C0 0.99 0 1.98 0 3 C-0.66 2.67 -1.32 2.34 -2 2 C-1.34 1.34 -0.68 0.68 0 0 Z " fill="#4FD2A9" transform="translate(150,157)"/>
<path d="M0 0 C1.65 0 3.3 0 5 0 C5 0.33 5 0.66 5 1 C3.35 1 1.7 1 0 1 C0 0.67 0 0.34 0 0 Z " fill="#62C793" transform="translate(107,122)"/>
<path d="M0 0 C1.65 0 3.3 0 5 0 C5 0.33 5 0.66 5 1 C3.35 1 1.7 1 0 1 C0 0.67 0 0.34 0 0 Z " fill="#63C996" transform="translate(112,121)"/>
<path d="M0 0 C1.65 0 3.3 0 5 0 C5 0.33 5 0.66 5 1 C3.35 1 1.7 1 0 1 C0 0.67 0 0.34 0 0 Z " fill="#7FD18F" transform="translate(62,80)"/>
<path d="M0 0 C1 4 1 4 1 4 Z " fill="#7DD291" transform="translate(68,296)"/>
<path d="M0 0 C1 4 1 4 1 4 Z " fill="#7DD192" transform="translate(104,288)"/>
<path d="M0 0 C0.99 0.495 0.99 0.495 2 1 C1.67 1.66 1.34 2.32 1 3 C0.67 2.01 0.34 1.02 0 0 Z " fill="#7DD192" transform="translate(141,271)"/>
<path d="M0 0 C1 4 1 4 1 4 Z " fill="#7DD191" transform="translate(115,271)"/>
<path d="M0 0 C0.66 0 1.32 0 2 0 C2 0.66 2 1.32 2 2 C1.34 2 0.68 2 0 2 C0 1.34 0 0.68 0 0 Z " fill="#7DD193" transform="translate(206,267)"/>
<path d="M0 0 C0.66 0 1.32 0 2 0 C2 0.66 2 1.32 2 2 C1.34 2 0.68 2 0 2 C0 1.34 0 0.68 0 0 Z " fill="#7ED192" transform="translate(26,267)"/>
<path d="M0 0 C1 4 1 4 1 4 Z " fill="#7DD191" transform="translate(61,249)"/>
<path d="M0 0 C4 1 4 1 4 1 Z " fill="#7CD392" transform="translate(205,243)"/>
<path d="M0 0 C4 1 4 1 4 1 Z " fill="#7CD192" transform="translate(106,243)"/>
<path d="M0 0 C4 1 4 1 4 1 Z " fill="#7DD292" transform="translate(64,243)"/>
<path d="M0 0 C4 1 4 1 4 1 Z " fill="#7DD292" transform="translate(25,243)"/>
<path d="M0 0 C1 4 1 4 1 4 Z " fill="#45D3AD" transform="translate(134,201)"/>
<path d="M0 0 C4 1 4 1 4 1 Z " fill="#289F8A" transform="translate(223,199)"/>
<path d="M0 0 C4 1 4 1 4 1 Z " fill="#46D5AC" transform="translate(136,199)"/>
<path d="M0 0 C4 1 4 1 4 1 Z " fill="#52D2A8" transform="translate(64,199)"/>
<path d="M0 0 C4 1 4 1 4 1 Z " fill="#60D2A1" transform="translate(7,199)"/>
<path d="M0 0 C4 1 4 1 4 1 Z " fill="#45D3AD" transform="translate(140,198)"/>
<path d="M0 0 C4 1 4 1 4 1 Z " fill="#54D2A6" transform="translate(60,198)"/>
<path d="M0 0 C0.99 0.495 0.99 0.495 2 1 C1.67 1.66 1.34 2.32 1 3 C0.67 2.01 0.34 1.02 0 0 Z " fill="#33B499" transform="translate(206,190)"/>
<path d="M0 0 C4 1 4 1 4 1 Z " fill="#5FD1A0" transform="translate(35,179)"/>
<path d="M0 0 C4 1 4 1 4 1 Z " fill="#4CB58D" transform="translate(96,174)"/>
<path d="M0 0 C0.66 0 1.32 0 2 0 C1.67 0.99 1.34 1.98 1 3 C0.67 2.01 0.34 1.02 0 0 Z " fill="#50D3A7" transform="translate(140,167)"/>
<path d="M0 0 C0.66 0.33 1.32 0.66 2 1 C1.01 1 0.02 1 -1 1 C-0.67 0.67 -0.34 0.34 0 0 Z " fill="#4E9F76" transform="translate(53,160)"/>
<path d="M0 0 C4 1 4 1 4 1 Z " fill="#52A982" transform="translate(70,151)"/>
<path d="M0 0 C0 3 0 3 0 3 Z " fill="#63BB8C" transform="translate(57,141)"/>
<path d="M0 0 C0 3 0 3 0 3 Z " fill="#5ACFA3" transform="translate(167,134)"/>
<path d="M0 0 C0.66 0.33 1.32 0.66 2 1 C1.01 1 0.02 1 -1 1 C-0.67 0.67 -0.34 0.34 0 0 Z " fill="#55AA7E" transform="translate(70,131)"/>
<path d="M0 0 C1 4 1 4 1 4 Z " fill="#55A97C" transform="translate(161,94)"/>
<path d="" fill="#7ED291" transform="translate(0,0)"/>
<path d="" fill="#7DD191" transform="translate(0,0)"/>
<path d="M0 0 C0.66 0.66 1.32 1.32 2 2 C1.34 2 0.68 2 0 2 C0 1.34 0 0.68 0 0 Z " fill="#7DD292" transform="translate(86,270)"/>
<path d="M0 0 C0.66 0.66 1.32 1.32 2 2 C1.34 2 0.68 2 0 2 C0 1.34 0 0.68 0 0 Z " fill="#7CD091" transform="translate(139,269)"/>
<path d="" fill="#7DD192" transform="translate(0,0)"/>
<path d="" fill="#2CA585" transform="translate(0,0)"/>
<path d="" fill="#5DD5A6" transform="translate(0,0)"/>
<path d="" fill="#5BD1A2" transform="translate(0,0)"/>
<path d="" fill="#3CD3B1" transform="translate(0,0)"/>
<path d="M0 0 C3 1 3 1 3 1 Z " fill="#50BF95" transform="translate(117,169)"/>
<path d="M0 0 C3 1 3 1 3 1 Z " fill="#55B184" transform="translate(74,150)"/>
<path d="M0 0 C3 1 3 1 3 1 Z " fill="#56B588" transform="translate(82,148)"/>
<path d="M0 0 C3 1 3 1 3 1 Z " fill="#64CC98" transform="translate(118,120)"/>
<path d="M0 0 C3 1 3 1 3 1 Z " fill="#64D39E" transform="translate(137,116)"/>
<path d="M0 0 C3 1 3 1 3 1 Z " fill="#64D29E" transform="translate(140,115)"/>
<path d="M0 0 C3 1 3 1 3 1 Z " fill="#65D29D" transform="translate(143,114)"/>
<path d="" fill="#4EA47D" transform="translate(0,0)"/>
<path d="M0 0 C3 1 3 1 3 1 Z " fill="#65D59E" transform="translate(148,112)"/>
<path d="M0 0 C3 1 3 1 3 1 Z " fill="#6AD299" transform="translate(138,108)"/>
<path d="" fill="#6ED299" transform="translate(0,0)"/>
<path d="" fill="#80D190" transform="translate(0,0)"/>
<path d="" fill="#83D18D" transform="translate(0,0)"/>
<path d="" fill="#8BD088" transform="translate(0,0)"/>
<path d="" fill="#8ED189" transform="translate(0,0)"/>
<path d="" fill="#91D285" transform="translate(0,0)"/>
<path d="" fill="#94D284" transform="translate(0,0)"/>
<path d="" fill="#7DD292" transform="translate(0,0)"/>
<path d="" fill="#7DD393" transform="translate(0,0)"/>
<path d="" fill="#7CD093" transform="translate(0,0)"/>
<path d="" fill="#7ED391" transform="translate(0,0)"/>
<path d="" fill="#7CD291" transform="translate(0,0)"/>
<path d="" fill="#7ECF91" transform="translate(0,0)"/>
<path d="M0 0 C2 1 2 1 2 1 Z " fill="#7ED291" transform="translate(86,291)"/>
<path d="M0 0 C2 1 2 1 2 1 Z " fill="#7DD393" transform="translate(0,291)"/>
<path d="" fill="#7CD293" transform="translate(0,0)"/>
<path d="" fill="#7BD094" transform="translate(0,0)"/>
<path d="" fill="#7ED190" transform="translate(0,0)"/>
<path d="" fill="#7ED092" transform="translate(0,0)"/>
<path d="" fill="#7DD291" transform="translate(0,0)"/>
<path d="" fill="#7DD291" transform="translate(0,0)"/>
<path d="" fill="#7ED290" transform="translate(0,0)"/>
<path d="" fill="#7DD294" transform="translate(0,0)"/>
<path d="" fill="#7ED393" transform="translate(0,0)"/>
<path d="" fill="#80D490" transform="translate(0,0)"/>
<path d="" fill="#7DD192" transform="translate(0,0)"/>
<path d="" fill="#7ED190" transform="translate(0,0)"/>
<path d="" fill="#7CD391" transform="translate(0,0)"/>
<path d="" fill="#7BD593" transform="translate(0,0)"/>
<path d="" fill="#7DD090" transform="translate(0,0)"/>
<path d="" fill="#7DD291" transform="translate(0,0)"/>
<path d="" fill="#7ED192" transform="translate(0,0)"/>
<path d="" fill="#7FD291" transform="translate(0,0)"/>
<path d="" fill="#7FD191" transform="translate(0,0)"/>
<path d="" fill="#7FD093" transform="translate(0,0)"/>
<path d="" fill="#7DD192" transform="translate(0,0)"/>
<path d="" fill="#7CD293" transform="translate(0,0)"/>
<path d="" fill="#7DD190" transform="translate(0,0)"/>
<path d="" fill="#7CD593" transform="translate(0,0)"/>
<path d="" fill="#7DD390" transform="translate(0,0)"/>
<path d="" fill="#7CD391" transform="translate(0,0)"/>
<path d="" fill="#7ED293" transform="translate(0,0)"/>
<path d="" fill="#7DD295" transform="translate(0,0)"/>
<path d="" fill="#7CD391" transform="translate(0,0)"/>
<path d="" fill="#7DD294" transform="translate(0,0)"/>
<path d="" fill="#7CD191" transform="translate(0,0)"/>
<path d="" fill="#7ED295" transform="translate(0,0)"/>
<path d="" fill="#7ED391" transform="translate(0,0)"/>
<path d="" fill="#80D390" transform="translate(0,0)"/>
<path d="" fill="#7FCF90" transform="translate(0,0)"/>
<path d="" fill="#7ED091" transform="translate(0,0)"/>
<path d="" fill="#7DD292" transform="translate(0,0)"/>
<path d="" fill="#7ED290" transform="translate(0,0)"/>
<path d="" fill="#7FD192" transform="translate(0,0)"/>
<path d="" fill="#80D490" transform="translate(0,0)"/>
<path d="" fill="#7CD293" transform="translate(0,0)"/>
<path d="" fill="#7CD192" transform="translate(0,0)"/>
<path d="" fill="#7CCF92" transform="translate(0,0)"/>
<path d="" fill="#80D691" transform="translate(0,0)"/>
<path d="" fill="#7ED18F" transform="translate(0,0)"/>
<path d="" fill="#7CD292" transform="translate(0,0)"/>
<path d="" fill="#7FD392" transform="translate(0,0)"/>
<path d="" fill="#7FD290" transform="translate(0,0)"/>
<path d="" fill="#7ED292" transform="translate(0,0)"/>
<path d="" fill="#7CD091" transform="translate(0,0)"/>
<path d="" fill="#7DD192" transform="translate(0,0)"/>
<path d="" fill="#7DD292" transform="translate(0,0)"/>
<path d="" fill="#80D292" transform="translate(0,0)"/>
<path d="" fill="#80D291" transform="translate(0,0)"/>
<path d="" fill="#7ED193" transform="translate(0,0)"/>
<path d="" fill="#7CD293" transform="translate(0,0)"/>
<path d="" fill="#7ED194" transform="translate(0,0)"/>
<path d="" fill="#7ED193" transform="translate(0,0)"/>
<path d="" fill="#7ED091" transform="translate(0,0)"/>
<path d="" fill="#7BD390" transform="translate(0,0)"/>
<path d="" fill="#7DD291" transform="translate(0,0)"/>
<path d="" fill="#7CD391" transform="translate(0,0)"/>
<path d="" fill="#7CD391" transform="translate(0,0)"/>
<path d="" fill="#7ED090" transform="translate(0,0)"/>
<path d="" fill="#7DD192" transform="translate(0,0)"/>
<path d="" fill="#7FD292" transform="translate(0,0)"/>
<path d="" fill="#7BD493" transform="translate(0,0)"/>
<path d="" fill="#7DD192" transform="translate(0,0)"/>
<path d="" fill="#7CD092" transform="translate(0,0)"/>
<path d="" fill="#7CD192" transform="translate(0,0)"/>
<path d="" fill="#81D793" transform="translate(0,0)"/>
<path d="" fill="#81D291" transform="translate(0,0)"/>
<path d="" fill="#7CCF92" transform="translate(0,0)"/>
<path d="" fill="#7FD192" transform="translate(0,0)"/>
<path d="" fill="#7CD393" transform="translate(0,0)"/>
<path d="" fill="#7FD193" transform="translate(0,0)"/>
<path d="" fill="#7FCF94" transform="translate(0,0)"/>
<path d="" fill="#7ED292" transform="translate(0,0)"/>
<path d="" fill="#7ED094" transform="translate(0,0)"/>
<path d="" fill="#7ED192" transform="translate(0,0)"/>
<path d="" fill="#7BD293" transform="translate(0,0)"/>
<path d="" fill="#7DD193" transform="translate(0,0)"/>
<path d="" fill="#7CD191" transform="translate(0,0)"/>
<path d="" fill="#7DD291" transform="translate(0,0)"/>
<path d="" fill="#52D1A8" transform="translate(0,0)"/>
<path d="M0 0 C2 1 2 1 2 1 Z " fill="#2DA88F" transform="translate(215,197)"/>
<path d="M0 0 C2 1 2 1 2 1 Z " fill="#57D1A4" transform="translate(58,197)"/>
<path d="M0 0 C2 1 2 1 2 1 Z " fill="#5BD1A3" transform="translate(17,197)"/>
<path d="" fill="#55D5A6" transform="translate(0,0)"/>
<path d="" fill="#58D2A4" transform="translate(0,0)"/>
<path d="" fill="#5DD2A3" transform="translate(0,0)"/>
<path d="" fill="#35B499" transform="translate(0,0)"/>
<path d="" fill="#5FD4A2" transform="translate(0,0)"/>
<path d="" fill="#4CD4AB" transform="translate(0,0)"/>
<path d="" fill="#5CD2A3" transform="translate(0,0)"/>
<path d="M0 0 C2 1 2 1 2 1 Z " fill="#3FD3B0" transform="translate(213,179)"/>
<path d="" fill="#3FC5A2" transform="translate(0,0)"/>
<path d="" fill="#41C19F" transform="translate(0,0)"/>
<path d="" fill="#469973" transform="translate(0,0)"/>
<path d="" fill="#4DD3A9" transform="translate(0,0)"/>
<path d="" fill="#499B74" transform="translate(0,0)"/>
<path d="" fill="#41C6A3" transform="translate(0,0)"/>
<path d="" fill="#50D1A9" transform="translate(0,0)"/>
<path d="M0 0 C2 1 2 1 2 1 Z " fill="#4EBE95" transform="translate(112,171)"/>
<path d="" fill="#479974" transform="translate(0,0)"/>
<path d="" fill="#41C6A2" transform="translate(0,0)"/>
<path d="M0 0 C2 1 2 1 2 1 Z " fill="#50C196" transform="translate(115,170)"/>
<path d="" fill="#489A75" transform="translate(0,0)"/>
<path d="" fill="#479672" transform="translate(0,0)"/>
<path d="" fill="#44C8A5" transform="translate(0,0)"/>
<path d="M0 0 C2 1 2 1 2 1 Z " fill="#4AA57C" transform="translate(54,167)"/>
<path d="" fill="#499B74" transform="translate(0,0)"/>
<path d="" fill="#47CBA6" transform="translate(0,0)"/>
<path d="M0 0 C2 1 2 1 2 1 Z " fill="#4DBE96" transform="translate(125,166)"/>
<path d="M0 0 C2 1 2 1 2 1 Z " fill="#4A9E7B" transform="translate(56,166)"/>
<path d="M0 0 C2 1 2 1 2 1 Z " fill="#499C72" transform="translate(58,165)"/>
<path d="" fill="#4DA179" transform="translate(0,0)"/>
<path d="" fill="#49CBA6" transform="translate(0,0)"/>
<path d="M0 0 C2 1 2 1 2 1 Z " fill="#419A78" transform="translate(60,164)"/>
<path d="M0 0 C2 1 2 1 2 1 Z " fill="#4FC292" transform="translate(138,159)"/>
<path d="M0 0 C2 1 2 1 2 1 Z " fill="#50AD84" transform="translate(71,159)"/>
<path d="M0 0 C2 1 2 1 2 1 Z " fill="#50AE85" transform="translate(73,158)"/>
<path d="M0 0 C2 1 2 1 2 1 Z " fill="#50A57B" transform="translate(57,157)"/>
<path d="" fill="#4DD3AA" transform="translate(0,0)"/>
<path d="" fill="#4F9B74" transform="translate(0,0)"/>
<path d="M0 0 C2 1 2 1 2 1 Z " fill="#4FAC86" transform="translate(80,155)"/>
<path d="" fill="#50D2A8" transform="translate(0,0)"/>
<path d="M0 0 C2 1 2 1 2 1 Z " fill="#52B289" transform="translate(82,154)"/>
<path d="M0 0 C2 1 2 1 2 1 Z " fill="#53AD80" transform="translate(66,153)"/>
<path d="" fill="#4FD3A9" transform="translate(0,0)"/>
<path d="M0 0 C2 1 2 1 2 1 Z " fill="#53AD80" transform="translate(68,152)"/>
<path d="" fill="#51D3A7" transform="translate(0,0)"/>
<path d="M0 0 C2 1 2 1 2 1 Z " fill="#54B88C" transform="translate(93,150)"/>
<path d="M0 0 C2 1 2 1 2 1 Z " fill="#55B98D" transform="translate(95,149)"/>
<path d="" fill="#50D1A7" transform="translate(0,0)"/>
<path d="" fill="#6BD19C" transform="translate(0,0)"/>
<path d="" fill="#51D2A7" transform="translate(0,0)"/>
<path d="" fill="#54D1A7" transform="translate(0,0)"/>
<path d="" fill="#6AD39C" transform="translate(0,0)"/>
<path d="" fill="#4FB98F" transform="translate(0,0)"/>
<path d="" fill="#57D0A4" transform="translate(0,0)"/>
<path d="" fill="#6CD298" transform="translate(0,0)"/>
<path d="" fill="#56D3A6" transform="translate(0,0)"/>
<path d="" fill="#4EB48D" transform="translate(0,0)"/>
<path d="" fill="#6DD199" transform="translate(0,0)"/>
<path d="" fill="#59D5A4" transform="translate(0,0)"/>
<path d="" fill="#5AD1A3" transform="translate(0,0)"/>
<path d="" fill="#4EAE87" transform="translate(0,0)"/>
<path d="M0 0 C2 1 2 1 2 1 Z " fill="#59AE7F" transform="translate(67,133)"/>
<path d="" fill="#6FD298" transform="translate(0,0)"/>
<path d="" fill="#59D3A5" transform="translate(0,0)"/>
<path d="" fill="#59D1A3" transform="translate(0,0)"/>
<path d="" fill="#70D197" transform="translate(0,0)"/>
<path d="" fill="#4EB187" transform="translate(0,0)"/>
<path d="M0 0 C2 1 2 1 2 1 Z " fill="#5BB382" transform="translate(72,130)"/>
<path d="" fill="#71D298" transform="translate(0,0)"/>
<path d="" fill="#4FB086" transform="translate(0,0)"/>
<path d="M0 0 C2 1 2 1 2 1 Z " fill="#5BB285" transform="translate(77,128)"/>
<path d="" fill="#70D19A" transform="translate(0,0)"/>
<path d="M0 0 C2 1 2 1 2 1 Z " fill="#6ED199" transform="translate(77,126)"/>
<path d="" fill="#6ED199" transform="translate(0,0)"/>
<path d="" fill="#4BAA80" transform="translate(0,0)"/>
<path d="M0 0 C2 1 2 1 2 1 Z " fill="#65CE9A" transform="translate(123,119)"/>
<path d="" fill="#4EA881" transform="translate(0,0)"/>
<path d="M0 0 C2 1 2 1 2 1 Z " fill="#65D29E" transform="translate(134,117)"/>
<path d="" fill="#72D296" transform="translate(0,0)"/>
<path d="" fill="#4DA980" transform="translate(0,0)"/>
<path d="" fill="#70D198" transform="translate(0,0)"/>
<path d="" fill="#75D394" transform="translate(0,0)"/>
<path d="M0 0 C2 1 2 1 2 1 Z " fill="#64D29E" transform="translate(146,113)"/>
<path d="" fill="#72D296" transform="translate(0,0)"/>
<path d="" fill="#74D293" transform="translate(0,0)"/>
<path d="" fill="#4CA47C" transform="translate(0,0)"/>
<path d="M0 0 C2 1 2 1 2 1 Z " fill="#5EC997" transform="translate(151,111)"/>
<path d="M0 0 C2 1 2 1 2 1 Z " fill="#69D49C" transform="translate(130,111)"/>
<path d="M0 0 C2 1 2 1 2 1 Z " fill="#6BD39B" transform="translate(133,110)"/>
<path d="" fill="#6BCE9B" transform="translate(0,0)"/>
<path d="" fill="#4EA57D" transform="translate(0,0)"/>
<path d="M0 0 C2 1 2 1 2 1 Z " fill="#6AD29B" transform="translate(136,109)"/>
<path d="" fill="#6CD29A" transform="translate(0,0)"/>
<path d="M0 0 C2 1 2 1 2 1 Z " fill="#50A67F" transform="translate(159,107)"/>
<path d="M0 0 C2 1 2 1 2 1 Z " fill="#65C894" transform="translate(141,107)"/>
<path d="M0 0 C2 1 2 1 2 1 Z " fill="#54A87C" transform="translate(143,106)"/>
<path d="" fill="#6DD298" transform="translate(0,0)"/>
<path d="M0 0 C2 1 2 1 2 1 Z " fill="#54A87D" transform="translate(153,102)"/>
<path d="" fill="#70D298" transform="translate(0,0)"/>
<path d="" fill="#4B9B71" transform="translate(0,0)"/>
<path d="M0 0 C2 1 2 1 2 1 Z " fill="#4EA379" transform="translate(156,100)"/>
<path d="" fill="#74D297" transform="translate(0,0)"/>
<path d="" fill="#4FA579" transform="translate(0,0)"/>
<path d="" fill="#70D298" transform="translate(0,0)"/>
<path d="" fill="#4EA27A" transform="translate(0,0)"/>
<path d="" fill="#75D395" transform="translate(0,0)"/>
<path d="" fill="#75D095" transform="translate(0,0)"/>
<path d="M0 0 C2 1 2 1 2 1 Z " fill="#4C9E74" transform="translate(172,94)"/>
<path d="" fill="#78D193" transform="translate(0,0)"/>
<path d="" fill="#79D192" transform="translate(0,0)"/>
<path d="" fill="#57AC80" transform="translate(0,0)"/>
<path d="" fill="#7BD192" transform="translate(0,0)"/>
<path d="" fill="#5AAF81" transform="translate(0,0)"/>
<path d="" fill="#7BD292" transform="translate(0,0)"/>
<path d="M0 0 C2 1 2 1 2 1 Z " fill="#7FD290" transform="translate(66,90)"/>
<path d="" fill="#7BD291" transform="translate(0,0)"/>
<path d="" fill="#7CD192" transform="translate(0,0)"/>
<path d="" fill="#78D295" transform="translate(0,0)"/>
<path d="" fill="#77D393" transform="translate(0,0)"/>
<path d="" fill="#79D293" transform="translate(0,0)"/>
<path d="" fill="#7AD294" transform="translate(0,0)"/>
<path d="" fill="#7BD291" transform="translate(0,0)"/>
<path d="" fill="#79D292" transform="translate(0,0)"/>
<path d="" fill="#7CD192" transform="translate(0,0)"/>
<path d="" fill="#7CD190" transform="translate(0,0)"/>
<path d="" fill="#7CD292" transform="translate(0,0)"/>
<path d="" fill="#7ED190" transform="translate(0,0)"/>
<path d="" fill="#83D08E" transform="translate(0,0)"/>
<path d="" fill="#89D18C" transform="translate(0,0)"/>
<path d="" fill="#70C589" transform="translate(0,0)"/>
<path d="" fill="#86D28E" transform="translate(0,0)"/>
<path d="" fill="#73C78B" transform="translate(0,0)"/>
<path d="" fill="#76C88B" transform="translate(0,0)"/>
<path d="" fill="#83D08E" transform="translate(0,0)"/>
<path d="" fill="#76CA8D" transform="translate(0,0)"/>
<path d="" fill="#83D18C" transform="translate(0,0)"/>
<path d="" fill="#7ACB8D" transform="translate(0,0)"/>
<path d="" fill="#85D08C" transform="translate(0,0)"/>
<path d="" fill="#7BCE8E" transform="translate(0,0)"/>
<path d="" fill="#88D18A" transform="translate(0,0)"/>
<path d="" fill="#87D28D" transform="translate(0,0)"/>
<path d="M0 0 C2 1 2 1 2 1 Z " fill="#88D089" transform="translate(75,50)"/>
<path d="" fill="#8FD188" transform="translate(0,0)"/>
<path d="M0 0 C2 1 2 1 2 1 Z " fill="#8DCF89" transform="translate(69,45)"/>
<path d="" fill="#92CF89" transform="translate(0,0)"/>
<path d="" fill="#81D28C" transform="translate(0,0)"/>
<path d="M0 0 C2 1 2 1 2 1 Z " fill="#91D18A" transform="translate(63,42)"/>
<path d="" fill="#84D08E" transform="translate(0,0)"/>
<path d="" fill="#83CF8F" transform="translate(0,0)"/>
<path d="" fill="#8BD18D" transform="translate(0,0)"/>
<path d="" fill="#86D18C" transform="translate(0,0)"/>
<path d="" fill="#8BCE8A" transform="translate(0,0)"/>
<path d="" fill="#86D18D" transform="translate(0,0)"/>
<path d="" fill="#8BD189" transform="translate(0,0)"/>
<path d="" fill="#8ED288" transform="translate(0,0)"/>
<path d="" fill="#8CD387" transform="translate(0,0)"/>
<path d="" fill="#8CD489" transform="translate(0,0)"/>
<path d="" fill="#92D186" transform="translate(0,0)"/>
<path d="" fill="#8CD189" transform="translate(0,0)"/>
<path d="" fill="#91D287" transform="translate(0,0)"/>
<path d="" fill="#92D287" transform="translate(0,0)"/>
<path d="" fill="#92D187" transform="translate(0,0)"/>
<path d="" fill="#91D185" transform="translate(0,0)"/>
<path d="" fill="#93D287" transform="translate(0,0)"/>
<path d="" fill="#93D183" transform="translate(0,0)"/>
<path d="" fill="#93D184" transform="translate(0,0)"/>
<path d="" fill="#7DD192" transform="translate(0,0)"/>
<path d="" fill="#7DD390" transform="translate(0,0)"/>
<path d="" fill="#7DD393" transform="translate(0,0)"/>
<path d="" fill="#7ED293" transform="translate(0,0)"/>
<path d="" fill="#7DD392" transform="translate(0,0)"/>
<path d="" fill="#7DD293" transform="translate(0,0)"/>
<path d="" fill="#7DD495" transform="translate(0,0)"/>
<path d="" fill="#7BD094" transform="translate(0,0)"/>
<path d="" fill="#7DD692" transform="translate(0,0)"/>
<path d="" fill="#7CD292" transform="translate(0,0)"/>
<path d="" fill="#7ED192" transform="translate(0,0)"/>
<path d="" fill="#7CD292" transform="translate(0,0)"/>
<path d="" fill="#7DD191" transform="translate(0,0)"/>
<path d="" fill="#7DD292" transform="translate(0,0)"/>
<path d="" fill="#7BD292" transform="translate(0,0)"/>
<path d="" fill="#7ED292" transform="translate(0,0)"/>
<path d="" fill="#7DD292" transform="translate(0,0)"/>
<path d="" fill="#7DD293" transform="translate(0,0)"/>
<path d="" fill="#7DD191" transform="translate(0,0)"/>
<path d="" fill="#7DD595" transform="translate(0,0)"/>
<path d="" fill="#7ED292" transform="translate(0,0)"/>
<path d="" fill="#7DD491" transform="translate(0,0)"/>
<path d="" fill="#7BD191" transform="translate(0,0)"/>
<path d="" fill="#7ED493" transform="translate(0,0)"/>
<path d="" fill="#7ED392" transform="translate(0,0)"/>
<path d="" fill="#7DD292" transform="translate(0,0)"/>
<path d="" fill="#7ACF93" transform="translate(0,0)"/>
<path d="" fill="#7DD391" transform="translate(0,0)"/>
<path d="" fill="#7FD492" transform="translate(0,0)"/>
<path d="" fill="#7ED192" transform="translate(0,0)"/>
<path d="" fill="#7ED592" transform="translate(0,0)"/>
<path d="" fill="#7FD092" transform="translate(0,0)"/>
<path d="" fill="#7DD293" transform="translate(0,0)"/>
<path d="" fill="#7DD392" transform="translate(0,0)"/>
<path d="" fill="#7BD093" transform="translate(0,0)"/>
<path d="" fill="#7DD293" transform="translate(0,0)"/>
<path d="" fill="#7DD293" transform="translate(0,0)"/>
<path d="" fill="#7CD18F" transform="translate(0,0)"/>
<path d="" fill="#81D391" transform="translate(0,0)"/>
<path d="" fill="#7ECE91" transform="translate(0,0)"/>
<path d="" fill="#83CE99" transform="translate(0,0)"/>
<path d="" fill="#80D191" transform="translate(0,0)"/>
<path d="" fill="#7CD094" transform="translate(0,0)"/>
<path d="" fill="#81D198" transform="translate(0,0)"/>
<path d="" fill="#7CD293" transform="translate(0,0)"/>
<path d="" fill="#7DD093" transform="translate(0,0)"/>
<path d="" fill="#7AD391" transform="translate(0,0)"/>
<path d="" fill="#7BD290" transform="translate(0,0)"/>
<path d="" fill="#7BD190" transform="translate(0,0)"/>
<path d="" fill="#83D690" transform="translate(0,0)"/>
<path d="" fill="#7ED393" transform="translate(0,0)"/>
<path d="" fill="#7DD294" transform="translate(0,0)"/>
<path d="" fill="#7CD293" transform="translate(0,0)"/>
<path d="" fill="#80D294" transform="translate(0,0)"/>
<path d="" fill="#81D08F" transform="translate(0,0)"/>
<path d="" fill="#7DD293" transform="translate(0,0)"/>
<path d="" fill="#7ED292" transform="translate(0,0)"/>
<path d="" fill="#7FD390" transform="translate(0,0)"/>
<path d="" fill="#7ED492" transform="translate(0,0)"/>
<path d="" fill="#7ED093" transform="translate(0,0)"/>
<path d="" fill="#7DD191" transform="translate(0,0)"/>
<path d="" fill="#7CD293" transform="translate(0,0)"/>
<path d="" fill="#7DD293" transform="translate(0,0)"/>
<path d="" fill="#7CD590" transform="translate(0,0)"/>
<path d="" fill="#7ED191" transform="translate(0,0)"/>
<path d="" fill="#80D190" transform="translate(0,0)"/>
<path d="" fill="#7DD292" transform="translate(0,0)"/>
<path d="" fill="#7CD292" transform="translate(0,0)"/>
<path d="" fill="#7DD192" transform="translate(0,0)"/>
<path d="" fill="#7ED392" transform="translate(0,0)"/>
<path d="" fill="#7ED393" transform="translate(0,0)"/>
<path d="" fill="#7CD092" transform="translate(0,0)"/>
<path d="" fill="#7CD095" transform="translate(0,0)"/>
<path d="" fill="#7FD291" transform="translate(0,0)"/>
<path d="" fill="#7DD293" transform="translate(0,0)"/>
<path d="" fill="#7DD291" transform="translate(0,0)"/>
<path d="" fill="#7CD190" transform="translate(0,0)"/>
<path d="" fill="#7ED191" transform="translate(0,0)"/>
<path d="" fill="#7DD290" transform="translate(0,0)"/>
<path d="" fill="#7ED291" transform="translate(0,0)"/>
<path d="" fill="#7DD292" transform="translate(0,0)"/>
<path d="" fill="#7CD291" transform="translate(0,0)"/>
<path d="" fill="#7ED291" transform="translate(0,0)"/>
<path d="" fill="#81D08E" transform="translate(0,0)"/>
<path d="" fill="#7DD291" transform="translate(0,0)"/>
<path d="" fill="#7ED292" transform="translate(0,0)"/>
<path d="" fill="#81D08F" transform="translate(0,0)"/>
<path d="" fill="#7DD192" transform="translate(0,0)"/>
<path d="" fill="#7ED092" transform="translate(0,0)"/>
<path d="" fill="#7BD194" transform="translate(0,0)"/>
<path d="" fill="#7FD191" transform="translate(0,0)"/>
<path d="" fill="#7CD093" transform="translate(0,0)"/>
<path d="" fill="#7BD392" transform="translate(0,0)"/>
<path d="" fill="#7CD292" transform="translate(0,0)"/>
<path d="" fill="#7FD291" transform="translate(0,0)"/>
<path d="" fill="#7DD292" transform="translate(0,0)"/>
<path d="" fill="#7ED391" transform="translate(0,0)"/>
<path d="" fill="#7DD494" transform="translate(0,0)"/>
<path d="" fill="#7DD494" transform="translate(0,0)"/>
<path d="" fill="#7ED292" transform="translate(0,0)"/>
<path d="" fill="#7DD391" transform="translate(0,0)"/>
<path d="" fill="#7DD392" transform="translate(0,0)"/>
<path d="" fill="#7FD28F" transform="translate(0,0)"/>
<path d="" fill="#7ED392" transform="translate(0,0)"/>
<path d="" fill="#7ED292" transform="translate(0,0)"/>
<path d="" fill="#7DD191" transform="translate(0,0)"/>
<path d="" fill="#7ED492" transform="translate(0,0)"/>
<path d="" fill="#7DD292" transform="translate(0,0)"/>
<path d="" fill="#7DD294" transform="translate(0,0)"/>
<path d="" fill="#7CD493" transform="translate(0,0)"/>
<path d="" fill="#7FD391" transform="translate(0,0)"/>
<path d="" fill="#7FD294" transform="translate(0,0)"/>
<path d="" fill="#7DD293" transform="translate(0,0)"/>
<path d="" fill="#80D291" transform="translate(0,0)"/>
<path d="" fill="#7ED292" transform="translate(0,0)"/>
<path d="" fill="#7ED493" transform="translate(0,0)"/>
<path d="" fill="#7CD193" transform="translate(0,0)"/>
<path d="" fill="#83DA98" transform="translate(0,0)"/>
<path d="" fill="#74D196" transform="translate(0,0)"/>
<path d="" fill="#7DD38F" transform="translate(0,0)"/>
<path d="" fill="#7FD48F" transform="translate(0,0)"/>
<path d="" fill="#7DD192" transform="translate(0,0)"/>
<path d="" fill="#7CD293" transform="translate(0,0)"/>
<path d="" fill="#7ED390" transform="translate(0,0)"/>
<path d="" fill="#7BD192" transform="translate(0,0)"/>
<path d="" fill="#7DD294" transform="translate(0,0)"/>
<path d="" fill="#7DD394" transform="translate(0,0)"/>
<path d="" fill="#4CD6AD" transform="translate(0,0)"/>
<path d="" fill="#46D5AF" transform="translate(0,0)"/>
<path d="" fill="#2EAD94" transform="translate(0,0)"/>
<path d="" fill="#45D2AE" transform="translate(0,0)"/>
<path d="" fill="#58D6A3" transform="translate(0,0)"/>
<path d="" fill="#5CD3A2" transform="translate(0,0)"/>
<path d="" fill="#32B49C" transform="translate(0,0)"/>
<path d="" fill="#43D2AF" transform="translate(0,0)"/>
<path d="" fill="#5FD2A1" transform="translate(0,0)"/>
<path d="" fill="#2FB498" transform="translate(0,0)"/>
<path d="" fill="#61D49E" transform="translate(0,0)"/>
<path d="" fill="#62D19E" transform="translate(0,0)"/>
<path d="" fill="#35B89B" transform="translate(0,0)"/>
<path d="" fill="#5DD2A1" transform="translate(0,0)"/>
<path d="" fill="#3DD2B0" transform="translate(0,0)"/>
<path d="" fill="#35B599" transform="translate(0,0)"/>
<path d="" fill="#5ED3A1" transform="translate(0,0)"/>
<path d="" fill="#3DD2B3" transform="translate(0,0)"/>
<path d="" fill="#37BB9D" transform="translate(0,0)"/>
<path d="" fill="#5DD49E" transform="translate(0,0)"/>
<path d="" fill="#3DD2B5" transform="translate(0,0)"/>
<path d="" fill="#3ED3B2" transform="translate(0,0)"/>
<path d="" fill="#3DD3B3" transform="translate(0,0)"/>
<path d="" fill="#4AD1A9" transform="translate(0,0)"/>
<path d="" fill="#41D1AF" transform="translate(0,0)"/>
<path d="" fill="#42D3AC" transform="translate(0,0)"/>
<path d="" fill="#4ED4AB" transform="translate(0,0)"/>
<path d="" fill="#4AA177" transform="translate(0,0)"/>
<path d="" fill="#489875" transform="translate(0,0)"/>
<path d="" fill="#489973" transform="translate(0,0)"/>
<path d="" fill="#4A9974" transform="translate(0,0)"/>
<path d="" fill="#4AA07B" transform="translate(0,0)"/>
<path d="" fill="#4FA27A" transform="translate(0,0)"/>
<path d="" fill="#51A87C" transform="translate(0,0)"/>
<path d="" fill="#53AC7E" transform="translate(0,0)"/>
<path d="" fill="#4EBF96" transform="translate(0,0)"/>
<path d="" fill="#53AB7E" transform="translate(0,0)"/>
<path d="" fill="#52D2A6" transform="translate(0,0)"/>
<path d="" fill="#4EA67B" transform="translate(0,0)"/>
<path d="" fill="#50D5A6" transform="translate(0,0)"/>
<path d="" fill="#4BA67D" transform="translate(0,0)"/>
<path d="" fill="#4EA176" transform="translate(0,0)"/>
<path d="" fill="#4C9B74" transform="translate(0,0)"/>
<path d="" fill="#51D4A8" transform="translate(0,0)"/>
<path d="" fill="#4DC197" transform="translate(0,0)"/>
<path d="" fill="#4DA67F" transform="translate(0,0)"/>
<path d="" fill="#4CA075" transform="translate(0,0)"/>
<path d="" fill="#53D1A7" transform="translate(0,0)"/>
<path d="" fill="#4FBF97" transform="translate(0,0)"/>
<path d="" fill="#54D3A6" transform="translate(0,0)"/>
<path d="" fill="#4DC095" transform="translate(0,0)"/>
<path d="" fill="#51AB85" transform="translate(0,0)"/>
<path d="" fill="#52A77D" transform="translate(0,0)"/>
<path d="" fill="#4ED2A8" transform="translate(0,0)"/>
<path d="" fill="#4DBF96" transform="translate(0,0)"/>
<path d="" fill="#4EA67A" transform="translate(0,0)"/>
<path d="" fill="#4FC097" transform="translate(0,0)"/>
<path d="" fill="#4CA077" transform="translate(0,0)"/>
<path d="" fill="#54D2A7" transform="translate(0,0)"/>
<path d="" fill="#4EC196" transform="translate(0,0)"/>
<path d="" fill="#52A97C" transform="translate(0,0)"/>
<path d="" fill="#53D3A7" transform="translate(0,0)"/>
<path d="" fill="#54D2A6" transform="translate(0,0)"/>
<path d="" fill="#4EC295" transform="translate(0,0)"/>
<path d="" fill="#51A980" transform="translate(0,0)"/>
<path d="" fill="#51A377" transform="translate(0,0)"/>
<path d="" fill="#56D1A5" transform="translate(0,0)"/>
<path d="" fill="#4FBD96" transform="translate(0,0)"/>
<path d="" fill="#53B388" transform="translate(0,0)"/>
<path d="" fill="#50A277" transform="translate(0,0)"/>
<path d="" fill="#51D2A6" transform="translate(0,0)"/>
<path d="" fill="#4DBA92" transform="translate(0,0)"/>
<path d="" fill="#519F77" transform="translate(0,0)"/>
<path d="" fill="#54B88C" transform="translate(0,0)"/>
<path d="" fill="#4FA179" transform="translate(0,0)"/>
<path d="" fill="#55D2A6" transform="translate(0,0)"/>
<path d="" fill="#4CB998" transform="translate(0,0)"/>
<path d="" fill="#57D0A5" transform="translate(0,0)"/>
<path d="" fill="#4BB896" transform="translate(0,0)"/>
<path d="" fill="#56D2A5" transform="translate(0,0)"/>
<path d="" fill="#4DBA95" transform="translate(0,0)"/>
<path d="" fill="#6AD39A" transform="translate(0,0)"/>
<path d="" fill="#56D3A6" transform="translate(0,0)"/>
<path d="" fill="#4FBD92" transform="translate(0,0)"/>
<path d="" fill="#4EBA90" transform="translate(0,0)"/>
<path d="" fill="#50BA90" transform="translate(0,0)"/>
<path d="" fill="#5DBC96" transform="translate(0,0)"/>
<path d="" fill="#52D2A7" transform="translate(0,0)"/>
<path d="" fill="#55D2A5" transform="translate(0,0)"/>
<path d="" fill="#5FBD92" transform="translate(0,0)"/>
<path d="" fill="#4CB993" transform="translate(0,0)"/>
<path d="" fill="#67CC95" transform="translate(0,0)"/>
<path d="" fill="#58D3A5" transform="translate(0,0)"/>
<path d="" fill="#68CA93" transform="translate(0,0)"/>
<path d="" fill="#56D1A5" transform="translate(0,0)"/>
<path d="" fill="#63C28E" transform="translate(0,0)"/>
<path d="" fill="#4DB289" transform="translate(0,0)"/>
<path d="" fill="#63BF8D" transform="translate(0,0)"/>
<path d="" fill="#57D1A5" transform="translate(0,0)"/>
<path d="" fill="#4DB38B" transform="translate(0,0)"/>
<path d="" fill="#67C592" transform="translate(0,0)"/>
<path d="" fill="#6CD299" transform="translate(0,0)"/>
<path d="" fill="#5DAE80" transform="translate(0,0)"/>
<path d="" fill="#6DD399" transform="translate(0,0)"/>
<path d="" fill="#6ED197" transform="translate(0,0)"/>
<path d="" fill="#6FD198" transform="translate(0,0)"/>
<path d="" fill="#4DB086" transform="translate(0,0)"/>
<path d="" fill="#70D39B" transform="translate(0,0)"/>
<path d="" fill="#6DD298" transform="translate(0,0)"/>
<path d="" fill="#5CD2A2" transform="translate(0,0)"/>
<path d="" fill="#5DB281" transform="translate(0,0)"/>
<path d="" fill="#6FD29A" transform="translate(0,0)"/>
<path d="" fill="#6ED398" transform="translate(0,0)"/>
<path d="" fill="#6CD49C" transform="translate(0,0)"/>
<path d="" fill="#5CD2A1" transform="translate(0,0)"/>
<path d="" fill="#71D59F" transform="translate(0,0)"/>
<path d="" fill="#72D49C" transform="translate(0,0)"/>
<path d="" fill="#50AC85" transform="translate(0,0)"/>
<path d="" fill="#74D496" transform="translate(0,0)"/>
<path d="" fill="#56AF7F" transform="translate(0,0)"/>
<path d="" fill="#54AF83" transform="translate(0,0)"/>
<path d="" fill="#4CA279" transform="translate(0,0)"/>
<path d="" fill="#51A97F" transform="translate(0,0)"/>
<path d="" fill="#53A87D" transform="translate(0,0)"/>
<path d="" fill="#51A77E" transform="translate(0,0)"/>
<path d="" fill="#74D396" transform="translate(0,0)"/>
<path d="" fill="#77D194" transform="translate(0,0)"/>
<path d="" fill="#4DA47D" transform="translate(0,0)"/>
<path d="" fill="#55AA7D" transform="translate(0,0)"/>
<path d="" fill="#50A57D" transform="translate(0,0)"/>
<path d="" fill="#50A67A" transform="translate(0,0)"/>
<path d="" fill="#54A97E" transform="translate(0,0)"/>
<path d="" fill="#51A779" transform="translate(0,0)"/>
<path d="" fill="#55A97F" transform="translate(0,0)"/>
<path d="" fill="#52A176" transform="translate(0,0)"/>
<path d="" fill="#7BD094" transform="translate(0,0)"/>
<path d="" fill="#51A67C" transform="translate(0,0)"/>
<path d="" fill="#72D297" transform="translate(0,0)"/>
<path d="" fill="#7AD393" transform="translate(0,0)"/>
<path d="" fill="#78D295" transform="translate(0,0)"/>
<path d="" fill="#59AE7D" transform="translate(0,0)"/>
<path d="" fill="#76D197" transform="translate(0,0)"/>
<path d="" fill="#77D292" transform="translate(0,0)"/>
<path d="" fill="#7CD190" transform="translate(0,0)"/>
<path d="" fill="#7DD290" transform="translate(0,0)"/>
<path d="" fill="#60B27F" transform="translate(0,0)"/>
<path d="" fill="#80D190" transform="translate(0,0)"/>
<path d="" fill="#7FCE91" transform="translate(0,0)"/>
<path d="" fill="#61B883" transform="translate(0,0)"/>
<path d="" fill="#7FCD91" transform="translate(0,0)"/>
<path d="" fill="#80D090" transform="translate(0,0)"/>
<path d="" fill="#63B783" transform="translate(0,0)"/>
<path d="" fill="#7ED291" transform="translate(0,0)"/>
<path d="" fill="#7DCD8D" transform="translate(0,0)"/>
<path d="" fill="#6BBF88" transform="translate(0,0)"/>
<path d="" fill="#82D08F" transform="translate(0,0)"/>
<path d="" fill="#85D18E" transform="translate(0,0)"/>
<path d="" fill="#89CF90" transform="translate(0,0)"/>
<path d="" fill="#85D08A" transform="translate(0,0)"/>
<path d="" fill="#85D28A" transform="translate(0,0)"/>
<path d="" fill="#85D28A" transform="translate(0,0)"/>
<path d="" fill="#86D08A" transform="translate(0,0)"/>
<path d="" fill="#70C58A" transform="translate(0,0)"/>
<path d="" fill="#87CE8C" transform="translate(0,0)"/>
<path d="" fill="#86D489" transform="translate(0,0)"/>
<path d="" fill="#82CF8D" transform="translate(0,0)"/>
<path d="" fill="#87D08A" transform="translate(0,0)"/>
<path d="" fill="#86D68F" transform="translate(0,0)"/>
<path d="" fill="#8AD48C" transform="translate(0,0)"/>
<path d="" fill="#88D188" transform="translate(0,0)"/>
<path d="" fill="#8BD18A" transform="translate(0,0)"/>
<path d="" fill="#8DD08C" transform="translate(0,0)"/>
<path d="" fill="#8BD08A" transform="translate(0,0)"/>
<path d="" fill="#82D290" transform="translate(0,0)"/>
<path d="" fill="#8ED189" transform="translate(0,0)"/>
<path d="" fill="#8DD08A" transform="translate(0,0)"/>
<path d="" fill="#92D386" transform="translate(0,0)"/>
<path d="" fill="#8AD28A" transform="translate(0,0)"/>
<path d="" fill="#87CF8D" transform="translate(0,0)"/>
<path d="" fill="#8AD18B" transform="translate(0,0)"/>
<path d="" fill="#8BD18B" transform="translate(0,0)"/>
<path d="" fill="#8CD08B" transform="translate(0,0)"/>
<path d="" fill="#8FD188" transform="translate(0,0)"/>
<path d="" fill="#90D089" transform="translate(0,0)"/>
<path d="" fill="#92D488" transform="translate(0,0)"/>
</svg>
